<?xml version="1.0" standalone="no"?>
<!DOCTYPE svg PUBLIC "-//W3C//DTD SVG 20010904//EN"
 "http://www.w3.org/TR/2001/REC-SVG-20010904/DTD/svg10.dtd">
<svg version="1.0" xmlns="http://www.w3.org/2000/svg"
 width="260.000000pt" height="260.000000pt" viewBox="0 0 260.000000 260.000000"
 preserveAspectRatio="xMidYMid meet">
<metadata>
Created by potrace 1.11, written by Peter Selinger 2001-2013
</metadata>
<g transform="translate(0.000000,260.000000) scale(0.100000,-0.100000)"
fill="#000000" stroke="none">
<path d="M110 1295 l0 -1195 1190 0 1190 0 0 1195 0 1195 -1190 0 -1190 0 0
-1195z m950 1091 c168 -103 269 -274 270 -458 0 -56 -1 -58 -33 -71 -41 -18
-91 -75 -107 -122 -33 -101 42 -220 151 -240 76 -14 175 40 205 112 32 76 7
176 -56 225 -27 21 -29 26 -16 37 8 7 20 10 26 6 6 -3 100 -114 210 -246 277
-331 280 -319 -85 -319 -274 0 -277 1 -291 55 -8 34 11 62 51 75 37 12 42 32
11 38 -29 6 -76 -19 -91 -49 -19 -36 -19 -63 0 -99 26 -51 50 -60 152 -60 51
0 93 -4 93 -8 0 -5 -13 -66 -30 -138 -16 -71 -30 -139 -30 -150 0 -26 -17 -34
-74 -34 -156 0 -332 92 -421 220 -25 36 -30 39 -36 23 -15 -38 -9 -180 10
-242 40 -130 100 -195 241 -264 81 -40 90 -42 175 -42 50 0 111 4 136 8 45 9
48 8 83 -27 20 -20 48 -60 63 -89 24 -45 28 -63 28 -142 0 -98 -10 -125 -66
-190 -31 -35 -32 -35 -112 -35 l-80 0 -70 75 c-116 126 -256 232 -428 324
-239 127 -435 187 -712 216 l-57 6 0 165 0 165 29 -20 c74 -53 169 -49 237 11
48 42 64 77 64 140 0 64 -23 111 -74 152 -29 24 -48 31 -97 34 l-62 5 6 151
c11 311 109 542 323 754 l94 93 153 -3 152 -3 65 -39z m1380 -1091 l0 -1135
-390 0 c-214 0 -390 2 -390 5 0 3 13 23 29 45 86 119 56 328 -64 439 -47 44
-78 51 -132 30 -48 -18 -152 -13 -218 12 -136 50 -232 139 -264 244 -16 51
-26 123 -22 158 1 4 17 -8 36 -27 114 -114 285 -177 436 -160 l56 6 12 67 c7
36 24 117 38 179 l27 112 140 0 c152 0 180 7 205 51 29 52 12 82 -180 309 -99
118 -192 230 -206 248 l-26 32 46 49 c73 78 110 164 126 289 5 41 12 76 14 79
10 10 125 -59 205 -122 93 -74 175 -168 238 -275 24 -41 44 -77 44 -80 0 -4
-18 -14 -40 -24 -111 -49 -140 -198 -57 -293 57 -65 143 -81 225 -42 84 41
122 143 88 234 -19 48 -72 101 -110 111 -24 6 -24 6 -10 47 55 155 58 353 8
525 -6 21 -4 22 65 22 l71 0 0 -1135z m-1004 516 c51 -23 90 -93 81 -147 -16
-99 -120 -152 -213 -108 -101 48 -98 204 6 256 44 23 75 22 126 -1z m874 -26
c104 -54 100 -204 -6 -256 -99 -48 -204 19 -204 130 0 106 115 175 210 126z
m-2112 -346 l22 -25 -25 -24 -25 -23 0 53 c0 29 1 51 3 49 1 -2 12 -16 25 -30z
m200 -77 c84 -61 79 -187 -11 -243 -45 -28 -127 -22 -163 12 -81 76 -69 189
26 241 43 24 106 19 148 -10z m34 -673 c299 -60 625 -230 836 -434 l97 -94
-597 -1 -598 0 0 281 0 282 83 -7 c45 -4 126 -16 179 -27z"/>
<path d="M760 2207 c-30 -8 -46 -18 -48 -31 -3 -16 0 -18 30 -12 139 27 243
16 336 -35 47 -26 53 -28 59 -13 8 23 -23 47 -95 75 -69 26 -215 35 -282 16z"/>
<path d="M725 1956 c-105 -49 -155 -119 -155 -217 1 -71 26 -125 83 -175 174
-154 477 -45 477 171 0 92 -51 169 -141 214 -82 41 -186 44 -264 7z m230 -31
c51 -22 112 -81 126 -122 47 -142 -68 -275 -235 -272 -59 1 -113 17 -61 18 50
2 107 41 133 91 27 55 28 92 1 146 -58 121 -237 119 -291 -3 -23 -52 -32 -52
-17 0 35 128 206 199 344 142z"/>
</g>
</svg>
